<?xml version="1.0" encoding="UTF-8"?>
<svg id="a" data-name="Layer 1" xmlns="http://www.w3.org/2000/svg" viewBox="0 0 296.17 16.38">
  <defs>
    <style>
      .b {
        fill: #003a70;
      }
    </style>
  </defs>
  <path class="b" d="M6.14,16.07v-7.04L0,.31h2.59l4.68,6.8L11.95.31h2.5l-6.14,8.71v7.04h-2.16Z"/>
  <path class="b" d="M26.58,12.02h-8.24l-1.82,4.05h-2.25L21.6.23h2l7.07,15.84h-2.34l-1.76-4.05ZM22.53,2.7l-3.33,7.4h6.55l-3.22-7.4Z"/>
  <path class="b" d="M34.29.31h2.18v13.8h6.77v1.96h-8.96V.31Z"/>
  <path class="b" d="M47.05.31h8.87l.65,1.96h-7.34v4.82h6.14v1.94h-6.14v5.09h7.41l-.65,1.96h-8.93V.31Z"/>
  <path class="b" d="M70.83,10.4v5.67h-2.18V.31h4.5c3.22,0,5.63,1.67,5.63,4.91s-2.5,5.18-5.81,5.18h-2.14ZM70.81,8.44h2.16c2.14,0,3.6-1.19,3.6-3.2,0-1.82-1.37-2.99-3.49-2.99h-2.27v6.19Z"/>
  <path class="b" d="M82.64.31h8.87l.65,1.96h-7.34v4.82h6.14v1.94h-6.14v5.09h7.41l-.65,1.96h-8.93V.31Z"/>
  <path class="b" d="M107.17,12.02h-8.24l-1.82,4.05h-2.25L102.2.23h2l7.07,15.84h-2.34l-1.76-4.05ZM103.12,2.7l-3.33,7.4h6.55l-3.22-7.4Z"/>
  <path class="b" d="M114.88,16.07V.31h4.75c3.08,0,4.97,1.53,4.97,4.12,0,1.58-.92,2.75-2.39,3.44,1.89.56,3.08,1.82,3.08,3.74,0,2.77-2.39,4.46-5.72,4.46h-4.7ZM116.98,7.11h2.3c1.96,0,3.17-1.08,3.17-2.54s-1.15-2.39-2.95-2.39h-2.52v4.93ZM119.7,14.2c2.18,0,3.44-1.12,3.44-2.63,0-1.67-1.33-2.61-3.56-2.61h-2.61v5.24h2.72Z"/>
  <path class="b" d="M136.69,0c4.66,0,8.19,3.62,8.19,8.17s-3.6,8.21-8.24,8.21-8.21-3.62-8.21-8.17,3.6-8.21,8.26-8.21ZM136.64,14.36c3.24,0,6.01-2.66,6.01-6.14s-2.72-6.19-6.05-6.19-5.94,2.66-5.94,6.14,2.63,6.19,5.99,6.19Z"/>
  <path class="b" d="M149.04.31h5.2c5.4,0,8.91,2.99,8.91,7.83s-3.8,7.92-8.91,7.92h-5.2V.31ZM151.22,2.3v11.79h3.06c3.74,0,6.64-2.23,6.64-5.9s-2.77-5.9-6.73-5.9h-2.97Z"/>
  <path class="b" d="M170.84,16.07v-7.04l-6.14-8.71h2.59l4.68,6.8,4.68-6.8h2.5l-6.14,8.71v7.04h-2.16Z"/>
  <path class="b" d="M191.99,2.5v13.57h-2.05V.31h3.22l6.08,12.11,6.05-12.11h3.29v15.75h-2.12V2.39l-7.07,13.93h-.34l-7.07-13.82Z"/>
  <path class="b" d="M213.57.31h2.18v8.91c0,3.31,1.82,5.11,4.68,5.11s4.68-1.73,4.68-5.18V.31h2.09v8.87c0,4.43-2.52,7.16-6.82,7.16s-6.82-2.72-6.82-7.16V.31Z"/>
  <path class="b" d="M236.25.04c1.8,0,3.04.5,4.14,1.19v2.43h-.04c-1.22-.9-2.63-1.6-4.19-1.6s-2.61.79-2.61,2.05.83,1.89,3.4,3.06c2.7,1.22,4.1,2.48,4.1,4.68,0,2.7-2.14,4.48-5.11,4.48-1.78,0-3.35-.61-4.61-1.55l-.52-2.93.04-.02c1.46,1.37,3.42,2.48,5.2,2.48,1.67,0,2.88-.83,2.88-2.27,0-1.33-1.04-2.03-3.4-3.08-2.45-1.1-4.07-2.23-4.07-4.64,0-2.61,1.96-4.28,4.79-4.28Z"/>
  <path class="b" d="M245.32.31h8.87l.65,1.96h-7.34v4.82h6.14v1.94h-6.14v5.09h7.41l-.65,1.96h-8.93V.31Z"/>
  <path class="b" d="M258.91.31h2.18v8.91c0,3.31,1.82,5.11,4.68,5.11s4.68-1.73,4.68-5.18V.31h2.09v8.87c0,4.43-2.52,7.16-6.82,7.16s-6.82-2.72-6.82-7.16V.31Z"/>
  <path class="b" d="M279.58,2.5v13.57h-2.05V.31h3.22l6.08,12.11,6.05-12.11h3.29v15.75h-2.12V2.39l-7.07,13.93h-.34l-7.07-13.82Z"/>
</svg>