<?xml version="1.0" encoding="UTF-8"?>
<svg id="a" data-name="Layer 2" xmlns="http://www.w3.org/2000/svg" viewBox="0 0 112.46 70.12">
  <defs>
    <style>
      .b {
        fill: #003a70;
      }
    </style>
  </defs>
  <path class="b" d="M6.14,15.84v-7.04L0,.09h2.59l4.68,6.8L11.95.09h2.5l-6.14,8.71v7.04h-2.16Z"/>
  <path class="b" d="M26.58,11.79h-8.24l-1.82,4.05h-2.25L21.6,0h2l7.07,15.84h-2.34l-1.75-4.05ZM22.52,2.48l-3.33,7.4h6.55l-3.22-7.4Z"/>
  <path class="b" d="M34.29.09h2.18v13.8h6.78v1.96h-8.96V.09Z"/>
  <path class="b" d="M47.05.09h8.87l.65,1.96h-7.34v4.82h6.14v1.94h-6.14v5.09h7.41l-.65,1.96h-8.94V.09Z"/>
  <path class="b" d="M4.14,37.17v5.67H1.96v-15.76h4.5c3.22,0,5.63,1.67,5.63,4.91s-2.5,5.18-5.81,5.18h-2.14ZM4.12,35.21h2.16c2.14,0,3.6-1.19,3.6-3.2,0-1.82-1.37-2.99-3.49-2.99h-2.27v6.19Z"/>
  <path class="b" d="M15.95,27.09h8.87l.65,1.96h-7.34v4.82h6.14v1.94h-6.14v5.09h7.4l-.65,1.96h-8.94v-15.76Z"/>
  <path class="b" d="M40.48,38.79h-8.24l-1.82,4.05h-2.25l7.34-15.85h2l7.07,15.85h-2.34l-1.75-4.05ZM36.43,29.48l-3.33,7.4h6.55l-3.22-7.4Z"/>
  <path class="b" d="M48.19,42.85v-15.76h4.75c3.08,0,4.97,1.53,4.97,4.12,0,1.58-.92,2.75-2.39,3.44,1.89.56,3.08,1.82,3.08,3.74,0,2.77-2.39,4.46-5.72,4.46h-4.7ZM50.29,33.89h2.3c1.96,0,3.17-1.08,3.17-2.54s-1.15-2.39-2.95-2.39h-2.52v4.93ZM53.01,40.98c2.18,0,3.44-1.12,3.44-2.63,0-1.67-1.33-2.61-3.56-2.61h-2.61v5.24h2.72Z"/>
  <path class="b" d="M70,26.77c4.66,0,8.19,3.62,8.19,8.17s-3.6,8.21-8.24,8.21-8.21-3.62-8.21-8.17,3.6-8.21,8.26-8.21ZM69.95,41.13c3.24,0,6.01-2.66,6.01-6.14s-2.72-6.19-6.05-6.19-5.94,2.66-5.94,6.14,2.63,6.19,5.99,6.19Z"/>
  <path class="b" d="M82.35,27.09h5.2c5.4,0,8.91,2.99,8.91,7.83s-3.8,7.92-8.91,7.92h-5.2v-15.76ZM84.53,29.07v11.79h3.06c3.74,0,6.64-2.23,6.64-5.9s-2.77-5.9-6.73-5.9h-2.97Z"/>
  <path class="b" d="M104.15,42.85v-7.04l-6.14-8.71h2.59l4.68,6.8,4.68-6.8h2.5l-6.14,8.71v7.04h-2.16Z"/>
  <path class="b" d="M4.01,56.27v13.57H1.96v-15.75h3.22l6.08,12.11,6.05-12.11h3.29v15.75h-2.12v-13.68l-7.07,13.93h-.34l-7.07-13.82Z"/>
  <path class="b" d="M25.58,54.09h2.18v8.91c0,3.31,1.82,5.11,4.68,5.11s4.68-1.73,4.68-5.18v-8.85h2.09v8.87c0,4.43-2.52,7.16-6.82,7.16s-6.82-2.72-6.82-7.16v-8.87Z"/>
  <path class="b" d="M48.26,53.82c1.8,0,3.04.5,4.14,1.19v2.43h-.05c-1.21-.9-2.63-1.6-4.19-1.6s-2.61.79-2.61,2.05.83,1.89,3.4,3.06c2.7,1.22,4.1,2.48,4.1,4.68,0,2.7-2.14,4.48-5.11,4.48-1.78,0-3.35-.61-4.61-1.55l-.52-2.93.04-.02c1.46,1.37,3.42,2.48,5.2,2.48,1.67,0,2.88-.83,2.88-2.27,0-1.33-1.04-2.03-3.4-3.08-2.45-1.1-4.07-2.23-4.07-4.64,0-2.61,1.96-4.28,4.79-4.28Z"/>
  <path class="b" d="M57.33,54.09h8.87l.65,1.96h-7.34v4.82h6.14v1.94h-6.14v5.09h7.4l-.65,1.96h-8.94v-15.75Z"/>
  <path class="b" d="M70.92,54.09h2.18v8.91c0,3.31,1.82,5.11,4.68,5.11s4.68-1.73,4.68-5.18v-8.85h2.09v8.87c0,4.43-2.52,7.16-6.82,7.16s-6.82-2.72-6.82-7.16v-8.87Z"/>
  <path class="b" d="M91.6,56.27v13.57h-2.05v-15.75h3.22l6.08,12.11,6.05-12.11h3.29v15.75h-2.12v-13.68l-7.07,13.93h-.34l-7.07-13.82Z"/>
</svg>